<svg width="1366" height="239" viewBox="0 0 1366 239" fill="none" xmlns="http://www.w3.org/2000/svg">
<path d="M1324.94 186.4C1314.34 186.4 1309.14 178.6 1311.34 166C1302.74 179 1292.34 186.4 1282.34 186.4C1264.34 186.4 1259.14 164 1271.54 137.8C1282.14 115.6 1301.14 100 1316.94 100C1328.54 100 1333.94 108.2 1332.54 120.4C1335.14 115 1336.94 109.8 1337.34 105.6C1343.34 104 1349.34 103.2 1352.34 103.2C1356.94 103.2 1358.54 107 1354.94 113.2C1345.34 129 1333.14 145 1329.14 162.2C1327.34 169.8 1328.94 176.4 1336.34 176.4C1344.14 176.4 1352.94 163.2 1363.34 141.2L1363.74 140.6H1365.54L1365.34 141.2C1356.14 161.4 1342.34 186.4 1324.94 186.4ZM1284.94 131.8C1276.34 151.2 1276.74 171.2 1292.74 171.2C1299.54 171.2 1308.34 168.4 1315.54 153C1318.34 146.8 1321.74 140.6 1324.94 134.6C1332.94 116.2 1329.94 103.4 1317.34 103.4C1305.74 103.4 1293.74 112.2 1284.94 131.8Z" fill="white"/>
<path d="M1223.12 151.2C1236.92 127 1250.92 109.8 1235.32 103C1232.52 101.8 1230.12 100.2 1227.92 98.4C1220.72 111.8 1212.92 126.8 1205.92 141.2L1205.52 141.8H1203.72L1203.92 141.2C1211.72 125.8 1219.32 110.2 1225.92 96.6C1218.32 88.8 1218.32 78 1222.32 71.2C1224.52 67.6 1228.12 65.4 1232.92 65.4C1239.92 65.4 1242.72 71.4 1241.72 73.2L1233.12 88.8C1233.72 93 1236.52 96.6 1243.12 99.6C1252.92 104 1262.32 107.6 1252.12 128C1238.92 154.8 1226.92 176.4 1241.72 176.4C1250.92 176.4 1259.92 163.2 1270.32 141.2L1270.72 140.6H1272.52L1272.32 141.2C1263.12 161.4 1249.32 186.4 1230.92 186.4C1216.32 186.4 1211.92 171 1223.12 151.2Z" fill="white"/>
<path d="M1201.72 80.8C1196.72 80.8 1194.52 76.8 1196.92 71.8C1199.12 66.8 1204.92 62.8 1209.92 62.8C1214.92 62.8 1217.12 66.8 1214.92 71.8C1212.52 76.8 1206.72 80.8 1201.72 80.8ZM1205.92 141.2C1196.92 161.4 1183.32 186.4 1164.92 186.4C1151.12 186.4 1147.12 172.8 1156.12 153C1164.12 135.4 1176.72 118.2 1177.92 105.6C1183.92 104 1189.92 103.2 1192.92 103.2C1197.52 103.2 1199.12 107 1195.52 113.2C1186.12 129 1173.72 145 1170.12 160.4C1167.92 169.8 1169.72 174.4 1174.92 174.4C1185.12 174.4 1194.72 160.4 1203.92 141.2L1204.52 140.6H1206.32L1205.92 141.2Z" fill="white"/>
<path d="M1164.3 141.2C1155.1 161.4 1142.7 186.4 1121.9 186.4C1109.7 186.4 1105.5 173.6 1104.5 157.4C1104.3 154.8 1103.7 153 1103.1 152H1102.1C1098.9 152 1096.5 150.8 1094.9 149C1090.3 156.4 1085.3 165.8 1080.1 177C1077.5 182.4 1077.1 183.2 1073.3 183.2C1067.7 183.2 1060.3 177.2 1071.5 153C1088.5 115.8 1116.3 77.4 1133.1 25.6C1138.9 24 1144.9 23.2 1147.5 23.2C1152.5 23.2 1153.7 26.6 1149.9 34.6C1136.1 63.2 1102.3 101 1081.1 163.4C1080.1 166.6 1081.3 167 1082.9 163.8C1104.5 117.6 1124.5 100 1142.5 100C1158.9 100 1159.7 115.8 1149.5 129C1141.5 139.6 1127.3 148.6 1111.1 151.2C1117.1 161 1121.5 174.6 1132.9 174.6C1142.3 174.6 1153.1 160.4 1162.3 141.2L1162.7 140.6H1164.5L1164.3 141.2ZM1099.7 141.8C1103.9 142.4 1107.3 145.4 1109.9 149.2C1119.7 147.8 1134.7 142 1140.9 129.6C1144.3 122.8 1140.9 117.8 1133.5 117.8C1125.1 117.8 1114.3 121 1099.7 141.8Z" fill="white"/>
<path d="M1019.67 222C1032.87 222 1046.67 205.2 1053.07 184.2C1059.87 161.8 1058.67 134.2 1040.67 116L1032.27 135.4C1000.07 208.6 1011.07 222 1019.67 222ZM810.072 146.6C829.072 103.4 867.272 75 904.072 75C923.072 75 935.272 84 940.672 97.6C955.872 93.8 969.472 92.4 980.072 92.4L988.872 92.6C1018.87 43.8 1043.07 0 1059.07 0C1074.67 0 1081.27 19.2 1042.27 112.4C1062.47 131.4 1065.07 161.2 1057.87 186.6C1050.47 212.2 1033.27 233.2 1015.87 233.2C992.672 233.2 980.872 213 1011.07 144.6L1027.67 106.2C1018.47 101.2 1007.27 97.8 992.672 96.6C953.672 159.2 902.472 233.2 852.672 233.2C804.272 233.2 791.072 189.8 810.072 146.6ZM826.272 135.6C804.072 187 819.272 222.2 854.472 222.2C903.872 222.2 949.472 156.4 986.672 96.2H981.272C967.072 96.2 954.272 98.6 942.272 102.6C945.672 115.6 943.672 132.6 936.472 149.2C931.072 161.6 908.272 167 914.272 155.4C923.472 137.8 927.472 121.6 926.672 109C896.672 123.4 876.472 146.2 865.872 157C857.072 165.8 852.872 148.8 859.872 142C880.472 122 903.672 109.6 925.672 102C922.472 88 912.672 79.8 897.072 79.8C867.472 79.8 840.872 101.6 826.272 135.6ZM994.872 93.2C1008.47 94.6 1019.87 98 1029.07 103C1062.47 23.8 1061.87 12 1052.87 12C1043.07 12 1022.07 49.4 994.872 93.2Z" fill="white"/>
<path d="M676.375 98.4C667.175 94.2 689.576 84.4 694.976 90C709.776 104.8 715.975 134.6 703.576 163.6C697.575 177.4 689.375 188.4 679.375 196C688.775 213.2 702.775 224.4 722.975 224.4C737.975 224.4 715.376 238.2 709.776 238.2C691.176 238.2 678.576 223.6 670.576 201.8C662.176 206.2 652.776 208.4 642.776 208.4C598.976 208.4 580.175 171.8 600.576 125.2C614.776 93.2 642.776 76.2 665.976 62.8C668.776 49.8 672.176 38.6 676.576 29.8C685.176 11.4 695.976 3.4 707.576 3.4C717.976 3.4 722.576 14 716.176 26C708.776 40.4 689.175 52.2 669.175 64.2C661.375 102.2 660.976 154.2 675.976 188.8C687.176 183 695.376 173 701.776 157.6C711.576 134.8 702.375 109.8 676.375 98.4ZM611.576 114.8C592.375 158.8 609.975 194.2 651.175 194.2C656.975 194.2 662.375 193.6 667.375 192.2C657.175 156 657.575 105.2 665.175 66.6C642.975 80 620.576 94.6 611.576 114.8ZM669.776 60.6C684.176 52.2 696.175 45 701.175 35.6C706.575 25.6 703.975 17.8 696.375 17.8C688.975 17.8 683.176 23.6 678.976 32.4C675.376 39.8 672.376 49.2 669.776 60.6Z" fill="white"/>
<path d="M539.411 80.8C534.411 80.8 532.211 76.8 534.611 71.8C536.811 66.8 542.611 62.8 547.611 62.8C552.611 62.8 554.811 66.8 552.611 71.8C550.211 76.8 544.411 80.8 539.411 80.8ZM543.611 141.2C534.611 161.4 521.011 186.4 502.611 186.4C488.811 186.4 484.811 172.8 493.811 153C501.811 135.4 514.411 118.2 515.611 105.6C521.611 104 527.611 103.2 530.611 103.2C535.211 103.2 536.811 107 533.211 113.2C523.811 129 511.411 145 507.811 160.4C505.611 169.8 507.411 174.4 512.611 174.4C522.811 174.4 532.411 160.4 541.611 141.2L542.211 140.6H544.011L543.611 141.2Z" fill="white"/>
<path d="M452.304 153C454.904 147.4 457.704 141.8 461.104 135.4C469.904 115.6 461.704 104.4 449.304 104.4C435.904 104.4 424.304 113.8 417.104 130.6C406.704 154.8 412.104 173.2 427.904 173.2C436.504 173.2 444.504 167.4 450.304 157.4L452.304 153ZM405.104 134.4C415.104 113.2 432.104 100 448.704 100C462.104 100 469.504 108.6 467.704 123.2C482.704 95.8 501.504 63.2 513.704 25.6C519.504 24 525.504 23.2 528.104 23.2C533.104 23.2 534.304 26.6 530.504 34.6C516.704 63.2 477.704 108.8 466.304 160.4C464.304 168.6 465.704 174.4 472.504 174.4C481.104 174.4 489.704 164.6 500.104 141.2L500.504 140.6H502.304L502.104 141.2C492.904 161.4 479.304 186.4 461.504 186.4C450.104 186.4 445.504 178.8 447.704 166.8C439.504 178.2 428.304 186.4 416.504 186.4C395.704 186.4 391.904 163.2 405.104 134.4Z" fill="white"/>
<path d="M400.74 80.8C395.74 80.8 393.54 76.8 395.94 71.8C398.14 66.8 403.94 62.8 408.94 62.8C413.94 62.8 416.14 66.8 413.94 71.8C411.54 76.8 405.74 80.8 400.74 80.8ZM404.94 141.2C395.94 161.4 382.34 186.4 363.94 186.4C350.14 186.4 346.139 172.8 355.139 153C363.139 135.4 375.74 118.2 376.94 105.6C382.94 104 388.94 103.2 391.94 103.2C396.54 103.2 398.139 107 394.539 113.2C385.139 129 372.739 145 369.139 160.4C366.939 169.8 368.74 174.4 373.94 174.4C384.14 174.4 393.74 160.4 402.94 141.2L403.539 140.6H405.34L404.94 141.2Z" fill="white"/>
<path d="M315.365 176C329.565 176 347.764 168.6 360.964 141.2L361.364 140.6H363.164L362.964 141.2C349.364 170 325.165 186.4 302.365 186.4C272.565 186.4 266.565 162.8 274.965 140.4C282.765 119.6 301.165 99.8 326.565 100C342.365 100 350.364 108.6 347.564 122.4C345.364 133 337.165 152 303.565 160.8C299.765 161.8 294.965 162.2 293.365 158.4C291.965 154.4 292.564 145.2 295.764 146C316.564 150.8 339.964 142 343.564 122.4C345.964 110.6 339.565 103.2 326.965 103.2C308.365 103.2 295.364 119.4 289.764 136.4C283.164 155.6 289.164 176 315.365 176Z" fill="white"/>
<path d="M223.335 0C245.135 0 235.735 57.4 205.735 115.4C211.335 116.8 216.735 117.4 222.335 117.4C228.335 117.4 233.935 116.8 239.535 115.6C267.535 57.4 315.735 0 344.335 0C367.135 0 326.335 85.2 256.135 114.4C231.135 172 220.135 232 261.535 232C275.735 232 293.735 220.4 310.335 196.8C312.735 193.4 323.735 204.2 316.135 212C301.735 226.8 279.535 236.2 259.935 236.2C204.735 236.2 210.335 179 237.135 120.8C228.135 123 218.735 124.2 208.935 124.2C206.335 124.2 203.935 124.2 201.135 124C170.335 179.8 121.135 233.2 63.5348 233.2C2.13481 233.2 -13.4652 177.2 11.1348 134.2C17.1348 123.6 24.5348 114.8 33.1348 107.8C29.5348 101.2 28.5348 92.4 30.3348 83C36.3348 51.6 68.7348 28.8 108.335 31.6C116.535 32.2 122.535 53.4 110.735 50.8C69.1348 41.4 39.3348 55.8 33.7348 84.4C32.1348 92.4 32.9348 99.8 35.9348 105.6C50.9348 94.4 68.9348 88.6 88.1348 88.6C101.535 88.6 112.335 91.4 120.735 96.4C161.935 61.4 193.535 0 223.335 0ZM26.3348 126.6C0.73481 171.4 14.5348 223.4 73.9348 223.4C118.535 223.4 158.135 173 184.335 121.4C174.735 119.2 165.335 115.8 155.335 110.6C147.335 106.4 149.335 81.8 156.935 88.6C167.135 97.8 178.335 105.2 189.935 110.2C213.735 59.6 223.935 11.2 212.735 11.2C192.935 11.2 163.535 65.2 123.735 98.4C143.935 113 146.135 141.8 129.535 169.2C127.535 172.6 101.135 180.8 110.135 168.4C125.535 146.8 131.735 118 118.135 102.8C101.935 115.2 84.3348 123.6 65.1348 123.6C52.3348 123.6 42.7348 119.8 36.5348 112.8C32.7348 116.8 29.3348 121.4 26.3348 126.6ZM39.1348 110.2C44.7348 116.8 53.7348 120.4 65.7348 120.4C83.9348 120.4 100.535 112.4 115.935 100.4C109.735 95 100.535 91.8 87.7348 91.8C72.3348 91.8 53.7348 96.4 39.1348 110.2ZM258.335 109.4C313.335 84.6 344.335 11.2 330.135 11.2C314.135 11.2 281.135 58.6 258.335 109.4Z" fill="white"/>
</svg>
